<svg id="jupiterone-logo" width="24" height="24" viewBox="0 0 24 24" fill="none"
  xmlns="http://www.w3.org/2000/svg">
  <path fill-rule="evenodd" clip-rule="evenodd" d="M12 24C18.6274 24 24 18.6274 24 12C24 5.37258 18.6274 0 12 0C5.37258 0 0 5.37258 0 12C0 18.6274 5.37258 24 12 24ZM5.3788 4.24149C9.67343 0.585596 16.0965 1.0944 19.7507 5.37218H4.24864C4.58769 4.97644 4.96441 4.5807 5.3788 4.24149ZM22.1617 11.1574H14.9099C14.4201 11.1386 13.9115 11.1951 13.4406 11.3081C13.1016 11.4213 12.7814 11.5908 12.4988 11.7982L12.4612 11.8169L12.4565 11.82C11.1583 12.6671 9.80338 13.5512 8.20424 13.9841C7.20592 14.2479 6.18878 14.2668 5.2093 14.2668H4.88908H2.06368C2.28971 15.2467 2.66643 16.2078 3.17501 17.0747H20.8432C21.7473 15.5294 22.2182 13.758 22.1995 11.9677C22.1995 11.7204 22.1829 11.473 22.1652 11.2102L22.1617 11.1574ZM18.5641 14.2291C18.5641 15.209 17.7541 16.0193 16.7747 16.0193C15.7951 16.0193 14.9853 15.209 14.9853 14.2291C14.9853 13.2492 15.7951 12.4389 16.7747 12.4389C17.7541 12.4389 18.5641 13.2492 18.5641 14.2291ZM19.7507 18.6201C16.0965 22.8978 9.65459 23.4255 5.3788 19.7508C4.96441 19.3927 4.58769 19.0158 4.24864 18.6201H19.7507ZM1.8 12.0056C1.8 12.2506 1.81884 12.5144 1.83767 12.7594H4.88911C5.86859 12.7594 6.88573 12.7594 7.8087 12.5144C9.1649 12.1563 10.3704 11.3837 11.6325 10.5545L11.6701 10.5357C12.0845 10.2341 12.5365 10.008 13.0263 9.85725C13.6479 9.68765 14.2883 9.63111 14.9288 9.63111H21.9546C21.7286 8.67003 21.3706 7.74663 20.8621 6.89861H3.1562C2.2709 8.44389 1.8 10.2153 1.8 12.0056Z" fill="#00BFA5"/>
</svg>
